<mxfile host="app.diagrams.net" modified="2024-06-24T14:00:11.177Z" agent="Mozilla/5.0 (Windows NT 10.0; Win64; x64) AppleWebKit/537.36 (KHTML, like Gecko) Chrome/126.0.0.0 Safari/537.36 Edg/126.0.0.0" version="24.5.2" etag="dgJ3anFi7B0-WK-MHv5J" type="github">
  <diagram name="第 1 页" id="bf1-u2Mq9mAZqO2x4tI5">
    <mxGraphModel>
      <root>
        <mxCell id="0" />
        <mxCell id="1" parent="0" />
      </root>
    </mxGraphModel>
  </diagram>
</mxfile>
